<?xml version="1.0" encoding="UTF-8" standalone="no"?>
<svg
   xmlns="http://www.w3.org/2000/svg"
   version="1.2"
   width="2.4426448mm"
   height="7.1205735mm"
   viewBox="0 0 1.3899998 4.0519995">
  <rect
     transform="translate(1.3249951,1.9999997)"
     x="-0.064999998"
     y="-2"
     width="0.13"
     height="3.2386"
     ry="0.039999999"
     id="rect24"
     style="fill:currentColor" />
  <a
     id="a26"
     transform="translate(-78.595105,-6.3453003)">
    <path
       transform="matrix(0.004,0,0,-0.004,78.5951,9.8453)"
       d="m 315,65 c 0,24 -21,41 -42,41 -4,0 -8,0 -12,-1 C 230,96 184,65 147,41 110,17 63,-12 43,-37 36,-45 32,-55 32,-65 c 0,-24 21,-41 42,-41 4,0 8,0 12,1 31,9 78,40 115,64 37,24 84,53 104,78 7,8 10,18 10,28 z m -51,72 c 47,0 83,-21 83,-72 0,-19 -4,-37 -10,-56 -12,-38 -32,-74 -65,-96 -54,-36 -113,-51 -188,-51 -47,0 -84,22 -84,73 0,19 5,37 11,56 12,38 31,74 64,96 54,36 114,50 189,50 z"
       id="path28"
       style="fill:currentColor" />
  </a>
</svg>
