<?xml version="1.0" encoding="UTF-8" standalone="no"?>
<svg
   xmlns="http://www.w3.org/2000/svg"
   version="1.2"
   width="6.3013687"
   height="11.581567"
   viewBox="0 0 1.012 1.86">
  <a
     id="a68"
     transform="translate(-41.4163,-5.8453001)">
    <path
       transform="matrix(0.004,0,0,-0.004,41.4283,6.6653)"
       d="M 72,-250 189,76 C 155,64 120,54 84,54 38,54 -3,87 -3,133 c 0,40 33,72 73,72 25,0 48,-15 56,-39 10,-28 6,-59 35,-59 16,0 54,48 61,63 6,12 23,12 28,0 L 127,-250 c -8,-7 -17,-10 -27,-10 -10,0 -20,3 -28,10 z"
       id="path70"
       style="fill:currentColor" />
  </a>
</svg>
