<?xml version="1.0" encoding="UTF-8" standalone="no"?>
<svg
   xmlns="http://www.w3.org/2000/svg"
   version="1.2"
   width="3.4794507mm"
   height="1.9400576mm"
   viewBox="0 0 1.9799996 1.1039999"
  />
  <a
     id="a92"
     transform="translate(-22.926405,-7.2933003)">
    <path
       transform="matrix(0.004,0,0,-0.004,22.9264,7.8453)"
       d="m 215,112 c -50,0 -69,-43 -69,-88 0,-77 57,-136 134,-136 50,0 69,43 69,88 0,77 -57,136 -134,136 z M 495,0 c 0,-43 -35,-76 -73,-97 -53,-30 -113,-41 -174,-41 -61,0 -122,11 -175,41 -38,21 -73,54 -73,97 0,43 35,76 73,97 53,30 114,41 175,41 61,0 121,-11 174,-41 38,-21 73,-54 73,-97 z"
       id="path94"
       style="fill:currentColor" />
  </a>
</svg>
